<?xml version="1.0" encoding="UTF-8" standalone="no"?>
<!-- Created with Inkscape (http://www.inkscape.org/) -->

<svg
   xmlns:dc="http://purl.org/dc/elements/1.1/"
   xmlns:cc="http://creativecommons.org/ns#"
   xmlns:rdf="http://www.w3.org/1999/02/22-rdf-syntax-ns#"
   xmlns:svg="http://www.w3.org/2000/svg"
   xmlns="http://www.w3.org/2000/svg"
   xmlns:sodipodi="http://sodipodi.sourceforge.net/DTD/sodipodi-0.dtd"
   xmlns:inkscape="http://www.inkscape.org/namespaces/inkscape"
   width="1260"
   height="300"
   id="svg2"
   version="1.1"
   inkscape:version="0.48+devel r9994"
   sodipodi:docname="Zeichnung.svg">
  <defs
     id="defs4">
    <marker
       inkscape:stockid="Arrow2Lend"
       orient="auto"
       refY="0"
       refX="0"
       id="Arrow2Lend"
       style="overflow:visible">
      <path
         id="path999"
         style="fill-rule:evenodd;stroke-width:0.625;stroke-linejoin:round"
         d="M 8.7185878,4.0337352 -2.2072895,0.01601326 8.7185884,-4.0017078 c -1.7454984,2.3720609 -1.7354408,5.6174519 -6e-7,8.035443 z"
         transform="matrix(-1.1,0,0,-1.1,-1.1,0)"
         inkscape:connector-curvature="0" />
    </marker>
  </defs>
  <sodipodi:namedview
     id="base"
     pagecolor="#ffffff"
     bordercolor="#666666"
     borderopacity="1.0"
     inkscape:pageopacity="0.0"
     inkscape:pageshadow="2"
     inkscape:zoom="0.90079365"
     inkscape:cx="630"
     inkscape:cy="150"
     inkscape:document-units="mm"
     inkscape:current-layer="layer1"
     showgrid="true"
     units="mm"
     inkscape:window-width="1280"
     inkscape:window-height="725"
     inkscape:window-x="0"
     inkscape:window-y="24"
     inkscape:window-maximized="1"
     fit-margin-top="0"
     fit-margin-left="0"
     fit-margin-right="0"
     fit-margin-bottom="0">
    <inkscape:grid
       type="xygrid"
       id="grid10"
       empspacing="5"
       visible="true"
       enabled="true"
       snapvisiblegridlinesonly="true" />
  </sodipodi:namedview>
  <metadata
     id="metadata7">
    <rdf:RDF>
      <cc:Work
         rdf:about="">
        <dc:format>image/svg+xml</dc:format>
        <dc:type
           rdf:resource="http://purl.org/dc/dcmitype/StillImage" />
        <dc:title></dc:title>
      </cc:Work>
    </rdf:RDF>
  </metadata>
  <g
     inkscape:label="Ebene 1"
     inkscape:groupmode="layer"
     id="layer1"
     transform="translate(120,-332.36217)">
    <path
       sodipodi:type="arc"
       style="fill:none;stroke:#000000;stroke-width:1.77165353;stroke-miterlimit:4;stroke-opacity:1;stroke-dasharray:none"
       id="path8"
       sodipodi:cx="140"
       sodipodi:cy="164.09448"
       sodipodi:rx="20"
       sodipodi:ry="20"
       d="m 160,164.09448 c 0,11.0457 -8.95431,20 -20,20 -11.04569,0 -20,-8.9543 -20,-20 0,-11.04569 8.95431,-20 20,-20 11.04569,0 20,8.95431 20,20 z"
       transform="translate(-100,308.26769)" />
    <path
       transform="translate(20,308.26769)"
       d="m 160,164.09448 c 0,11.0457 -8.95431,20 -20,20 -11.04569,0 -20,-8.9543 -20,-20 0,-11.04569 8.95431,-20 20,-20 11.04569,0 20,8.95431 20,20 z"
       sodipodi:ry="20"
       sodipodi:rx="20"
       sodipodi:cy="164.09448"
       sodipodi:cx="140"
       id="path789"
       style="fill:none;stroke:#000000;stroke-width:1.77165353;stroke-miterlimit:4;stroke-opacity:1;stroke-dasharray:none"
       sodipodi:type="arc" />
    <path
       transform="translate(140,208.26769)"
       d="m 160,164.09448 c 0,11.0457 -8.95431,20 -20,20 -11.04569,0 -20,-8.9543 -20,-20 0,-11.04569 8.95431,-20 20,-20 11.04569,0 20,8.95431 20,20 z"
       sodipodi:ry="20"
       sodipodi:rx="20"
       sodipodi:cy="164.09448"
       sodipodi:cx="140"
       id="path789-9"
       style="fill:none;stroke:#000000;stroke-width:1.77165353;stroke-miterlimit:4;stroke-opacity:1;stroke-dasharray:none"
       sodipodi:type="arc" />
    <path
       transform="translate(140,428.26769)"
       d="m 160,164.09448 c 0,11.0457 -8.95431,20 -20,20 -11.04569,0 -20,-8.9543 -20,-20 0,-11.04569 8.95431,-20 20,-20 11.04569,0 20,8.95431 20,20 z"
       sodipodi:ry="20"
       sodipodi:rx="20"
       sodipodi:cy="164.09448"
       sodipodi:cx="140"
       id="path789-2"
       style="fill:none;stroke:#000000;stroke-width:1.77165353;stroke-miterlimit:4;stroke-opacity:1;stroke-dasharray:none"
       sodipodi:type="arc" />
    <path
       transform="translate(280,208.26769)"
       d="m 160,164.09448 c 0,11.0457 -8.95431,20 -20,20 -11.04569,0 -20,-8.9543 -20,-20 0,-11.04569 8.95431,-20 20,-20 11.04569,0 20,8.95431 20,20 z"
       sodipodi:ry="20"
       sodipodi:rx="20"
       sodipodi:cy="164.09448"
       sodipodi:cx="140"
       id="path789-7"
       style="fill:none;stroke:#000000;stroke-width:1.77165353;stroke-miterlimit:4;stroke-opacity:1;stroke-dasharray:none"
       sodipodi:type="arc" />
    <path
       transform="translate(400,308.26769)"
       d="m 160,164.09448 c 0,11.0457 -8.95431,20 -20,20 -11.04569,0 -20,-8.9543 -20,-20 0,-11.04569 8.95431,-20 20,-20 11.04569,0 20,8.95431 20,20 z"
       sodipodi:ry="20"
       sodipodi:rx="20"
       sodipodi:cy="164.09448"
       sodipodi:cx="140"
       id="path789-1"
       style="fill:none;stroke:#000000;stroke-width:1.77165353;stroke-miterlimit:4;stroke-opacity:1;stroke-dasharray:none"
       sodipodi:type="arc" />
    <path
       transform="translate(680,308.26769)"
       d="m 160,164.09448 c 0,11.0457 -8.95431,20 -20,20 -11.04569,0 -20,-8.9543 -20,-20 0,-11.04569 8.95431,-20 20,-20 11.04569,0 20,8.95431 20,20 z"
       sodipodi:ry="20"
       sodipodi:rx="20"
       sodipodi:cy="164.09448"
       sodipodi:cx="140"
       id="path789-4"
       style="fill:none;stroke:#000000;stroke-width:1.77165353;stroke-miterlimit:4;stroke-opacity:1;stroke-dasharray:none"
       sodipodi:type="arc" />
    <path
       transform="translate(960,308.26769)"
       d="m 160,164.09448 c 0,11.0457 -8.95431,20 -20,20 -11.04569,0 -20,-8.9543 -20,-20 0,-11.04569 8.95431,-20 20,-20 11.04569,0 20,8.95431 20,20 z"
       sodipodi:ry="20"
       sodipodi:rx="20"
       sodipodi:cy="164.09448"
       sodipodi:cx="140"
       id="path789-21"
       style="fill:none;stroke:#000000;stroke-width:1.77165353;stroke-miterlimit:4;stroke-opacity:1;stroke-dasharray:none"
       sodipodi:type="arc" />
    <path
       transform="translate(280,428.26769)"
       d="m 160,164.09448 c 0,11.0457 -8.95431,20 -20,20 -11.04569,0 -20,-8.9543 -20,-20 0,-11.04569 8.95431,-20 20,-20 11.04569,0 20,8.95431 20,20 z"
       sodipodi:ry="20"
       sodipodi:rx="20"
       sodipodi:cy="164.09448"
       sodipodi:cx="140"
       id="path789-7-8"
       style="fill:none;stroke:#000000;stroke-width:1.77165353;stroke-miterlimit:4;stroke-opacity:1;stroke-dasharray:none"
       sodipodi:type="arc" />
    <path
       transform="translate(540,308.26769)"
       d="m 160,164.09448 c 0,11.0457 -8.95431,20 -20,20 -11.04569,0 -20,-8.9543 -20,-20 0,-11.04569 8.95431,-20 20,-20 11.04569,0 20,8.95431 20,20 z"
       sodipodi:ry="20"
       sodipodi:rx="20"
       sodipodi:cy="164.09448"
       sodipodi:cx="140"
       id="path789-77-2"
       style="fill:none;stroke:#000000;stroke-width:1.77165353;stroke-miterlimit:4;stroke-opacity:1;stroke-dasharray:none"
       sodipodi:type="arc" />
    <path
       transform="translate(820,308.26769)"
       d="m 160,164.09448 c 0,11.0457 -8.95431,20 -20,20 -11.04569,0 -20,-8.9543 -20,-20 0,-11.04569 8.95431,-20 20,-20 11.04569,0 20,8.95431 20,20 z"
       sodipodi:ry="20"
       sodipodi:rx="20"
       sodipodi:cy="164.09448"
       sodipodi:cx="140"
       id="path789-4-2"
       style="fill:none;stroke:#000000;stroke-width:1.77165353;stroke-miterlimit:4;stroke-opacity:1;stroke-dasharray:none"
       sodipodi:type="arc" />
    <path
       style="fill:none;stroke:#000000;stroke-width:1.77165353;stroke-linecap:butt;stroke-linejoin:miter;stroke-miterlimit:4;stroke-opacity:1;stroke-dasharray:none;marker-end:url(#Arrow2Lend)"
       d="m 60,164.09448 80,0"
       id="path888"
       inkscape:connector-curvature="0"
       transform="translate(0,308.26769)" />
    <path
       style="fill:none;stroke:#000000;stroke-width:1.77165353;stroke-linecap:butt;stroke-linejoin:miter;stroke-miterlimit:4;stroke-opacity:1;stroke-dasharray:none;marker-end:url(#Arrow2Lend)"
       d="M 180,164.09448 260,64.094482"
       id="path890"
       inkscape:connector-curvature="0"
       transform="translate(0,308.26769)" />
    <path
       style="fill:none;stroke:#000000;stroke-width:1.77165353;stroke-linecap:butt;stroke-linejoin:miter;stroke-miterlimit:4;stroke-opacity:1;stroke-dasharray:none;marker-end:url(#Arrow2Lend)"
       d="m 180,164.09448 80,120"
       id="path892"
       inkscape:connector-curvature="0"
       transform="translate(0,308.26769)" />
    <path
       style="fill:none;stroke:#000000;stroke-width:1.77165353;stroke-linecap:butt;stroke-linejoin:miter;stroke-miterlimit:4;stroke-opacity:1;stroke-dasharray:none;marker-end:url(#Arrow2Lend)"
       d="m 300,64.094482 100,0"
       id="path894"
       inkscape:connector-curvature="0"
       transform="translate(0,308.26769)" />
    <path
       style="fill:none;stroke:#000000;stroke-width:1.77165353;stroke-linecap:butt;stroke-linejoin:miter;stroke-miterlimit:4;stroke-opacity:1;stroke-dasharray:none;marker-end:url(#Arrow2Lend)"
       d="m 840,472.36217 100,0"
       id="path894-5"
       inkscape:connector-curvature="0" />
    <path
       style="fill:none;stroke:#000000;stroke-width:1.77165353;stroke-linecap:butt;stroke-linejoin:miter;stroke-miterlimit:4;stroke-opacity:1;stroke-dasharray:none;marker-end:url(#Arrow2Lend)"
       d="m 300,592.36217 100,0"
       id="path894-8"
       inkscape:connector-curvature="0" />
    <path
       style="fill:none;stroke:#000000;stroke-width:1.77165353;stroke-linecap:butt;stroke-linejoin:miter;stroke-miterlimit:4;stroke-opacity:1;stroke-dasharray:none;marker-end:url(#Arrow2Lend)"
       d="m 560,472.36217 100,0"
       id="path894-07"
       inkscape:connector-curvature="0" />
    <path
       style="fill:none;stroke:#000000;stroke-width:1.77165353;stroke-linecap:butt;stroke-linejoin:miter;stroke-miterlimit:4;stroke-opacity:1;stroke-dasharray:none;marker-end:url(#Arrow2Lend)"
       d="m 700,472.36217 100,0"
       id="path894-3"
       inkscape:connector-curvature="0" />
    <path
       style="fill:none;stroke:#000000;stroke-width:1.77165353;stroke-linecap:butt;stroke-linejoin:miter;stroke-miterlimit:4;stroke-opacity:1;stroke-dasharray:none;marker-end:url(#Arrow2Lend)"
       d="m 980,472.36217 100,0"
       id="path894-82"
       inkscape:connector-curvature="0" />
    <path
       sodipodi:type="arc"
       style="fill:none;stroke:#000000;stroke-width:1.77165353;stroke-linecap:round;stroke-linejoin:round;stroke-miterlimit:4;stroke-opacity:1;stroke-dasharray:none;stroke-dashoffset:2.16000007"
       id="path1460"
       sodipodi:cx="1100"
       sodipodi:cy="164.09448"
       sodipodi:rx="10"
       sodipodi:ry="10"
       d="m 1110,164.09448 c 0,5.52285 -4.4772,10 -10,10 -5.5228,0 -10,-4.47715 -10,-10 0,-5.52285 4.4772,-10 10,-10 5.5228,0 10,4.47715 10,10 z"
       transform="translate(0,308.26769)" />
    <text
       xml:space="preserve"
       style="font-size:20px;font-style:normal;font-variant:normal;font-weight:normal;font-stretch:normal;text-align:center;line-height:125%;letter-spacing:0px;word-spacing:0px;text-anchor:middle;fill:#000000;fill-opacity:1;stroke:none;font-family:LMRoman9;-inkscape-font-specification:LMRoman9"
       x="100"
       y="452.36218"
       id="text1462"
       sodipodi:linespacing="125%"><tspan
         sodipodi:role="line"
         id="tspan1464"
         x="100"
         y="452.36218">1</tspan></text>
    <text
       xml:space="preserve"
       style="font-size:20px;font-style:normal;font-variant:normal;font-weight:normal;font-stretch:normal;text-align:center;line-height:125%;letter-spacing:0px;word-spacing:0px;text-anchor:middle;fill:#000000;fill-opacity:1;stroke:none;font-family:LMRoman9;-inkscape-font-specification:LMRoman9"
       x="340"
       y="352.36218"
       id="text1462-7"
       sodipodi:linespacing="125%"><tspan
         sodipodi:role="line"
         id="tspan1464-7"
         x="340"
         y="352.36218">3a</tspan></text>
    <text
       xml:space="preserve"
       style="font-size:20px;font-style:normal;font-variant:normal;font-weight:normal;font-stretch:normal;text-align:center;line-height:125%;letter-spacing:0px;word-spacing:0px;text-anchor:middle;fill:#000000;fill-opacity:1;stroke:none;font-family:LMRoman9;-inkscape-font-specification:LMRoman9"
       x="500"
       y="412.36218"
       id="text1462-9"
       sodipodi:linespacing="125%"><tspan
         sodipodi:role="line"
         id="tspan1464-1"
         x="500"
         y="412.36218">4a</tspan></text>
    <text
       xml:space="preserve"
       style="font-size:20px;font-style:normal;font-variant:normal;font-weight:normal;font-stretch:normal;text-align:center;line-height:125%;letter-spacing:0px;word-spacing:0px;text-anchor:middle;fill:#000000;fill-opacity:1;stroke:none;font-family:LMRoman9;-inkscape-font-specification:LMRoman9"
       x="880"
       y="452.36218"
       id="text1462-76"
       sodipodi:linespacing="125%"><tspan
         sodipodi:role="line"
         id="tspan1464-80"
         x="880"
         y="452.36218">7</tspan></text>
    <text
       xml:space="preserve"
       style="font-size:20px;font-style:normal;font-variant:normal;font-weight:normal;font-stretch:normal;text-align:center;line-height:125%;letter-spacing:0px;word-spacing:0px;text-anchor:middle;fill:#000000;fill-opacity:1;stroke:none;font-family:LMRoman9;-inkscape-font-specification:LMRoman9"
       x="340"
       y="572.36218"
       id="text1462-8"
       sodipodi:linespacing="125%"><tspan
         sodipodi:role="line"
         id="tspan1464-6"
         x="340"
         y="572.36218">3b</tspan></text>
    <text
       xml:space="preserve"
       style="font-size:20px;font-style:normal;font-variant:normal;font-weight:normal;font-stretch:normal;text-align:center;line-height:125%;letter-spacing:0px;word-spacing:0px;text-anchor:middle;fill:#000000;fill-opacity:1;stroke:none;font-family:LMRoman9;-inkscape-font-specification:LMRoman9"
       x="460"
       y="532.36218"
       id="text1462-1"
       sodipodi:linespacing="125%"><tspan
         sodipodi:role="line"
         id="tspan1464-4"
         x="460"
         y="532.36218">4b</tspan></text>
    <text
       xml:space="preserve"
       style="font-size:20px;font-style:normal;font-variant:normal;font-weight:normal;font-stretch:normal;text-align:center;line-height:125%;letter-spacing:0px;word-spacing:0px;text-anchor:middle;fill:#000000;fill-opacity:1;stroke:none;font-family:LMRoman9;-inkscape-font-specification:LMRoman9"
       x="600"
       y="452.36218"
       id="text1462-5"
       sodipodi:linespacing="125%"><tspan
         sodipodi:role="line"
         id="tspan1464-2"
         x="600"
         y="452.36218">5</tspan></text>
    <text
       xml:space="preserve"
       style="font-size:20px;font-style:normal;font-variant:normal;font-weight:normal;font-stretch:normal;text-align:center;line-height:125%;letter-spacing:0px;word-spacing:0px;text-anchor:middle;fill:#000000;fill-opacity:1;stroke:none;font-family:LMRoman9;-inkscape-font-specification:LMRoman9"
       x="740"
       y="452.36218"
       id="text1462-59"
       sodipodi:linespacing="125%"><tspan
         sodipodi:role="line"
         id="tspan1464-3"
         x="740"
         y="452.36218">6</tspan></text>
    <text
       xml:space="preserve"
       style="font-size:20px;font-style:normal;font-variant:normal;font-weight:normal;font-stretch:normal;text-align:center;line-height:125%;letter-spacing:0px;word-spacing:0px;text-anchor:middle;fill:#000000;fill-opacity:1;stroke:none;font-family:LMRoman9;-inkscape-font-specification:LMRoman9"
       x="1020"
       y="452.36218"
       id="text1462-88"
       sodipodi:linespacing="125%"><tspan
         sodipodi:role="line"
         id="tspan1464-43"
         x="1020"
         y="452.36218">8</tspan></text>
    <text
       xml:space="preserve"
       style="font-size:20px;font-style:normal;font-variant:normal;font-weight:normal;font-stretch:normal;text-align:center;line-height:125%;letter-spacing:0px;word-spacing:0px;text-anchor:middle;fill:#000000;fill-opacity:1;stroke:none;font-family:LMRoman9;-inkscape-font-specification:LMRoman9"
       x="200"
       y="412.36218"
       id="text1462-0"
       sodipodi:linespacing="125%"><tspan
         sodipodi:role="line"
         id="tspan1464-5"
         x="200"
         y="412.36218">2a</tspan></text>
    <text
       xml:space="preserve"
       style="font-size:20px;font-style:normal;font-variant:normal;font-weight:normal;font-stretch:normal;text-align:center;line-height:125%;letter-spacing:0px;word-spacing:0px;text-anchor:middle;fill:#000000;fill-opacity:1;stroke:none;font-family:LMRoman9;-inkscape-font-specification:LMRoman9"
       x="240"
       y="532.36218"
       id="text1462-6"
       sodipodi:linespacing="125%"><tspan
         sodipodi:role="line"
         id="tspan1464-25"
         x="240"
         y="532.36218">2b</tspan></text>
    <path
       sodipodi:type="arc"
       style="fill:none;stroke:#000000;stroke-width:1.77165353;stroke-miterlimit:4;stroke-opacity:1;stroke-dasharray:none"
       id="path8-6"
       sodipodi:cx="140"
       sodipodi:cy="164.09448"
       sodipodi:rx="20"
       sodipodi:ry="20"
       d="m 160,164.09448 c 0,11.0457 -8.95431,20 -20,20 -11.04569,0 -20,-8.9543 -20,-20 0,-11.04569 8.95431,-20 20,-20 11.04569,0 20,8.95431 20,20 z"
       transform="translate(-220,308.26769)" />
    <path
       style="fill:none;stroke:#000000;stroke-width:1.77165353;stroke-linecap:butt;stroke-linejoin:miter;stroke-miterlimit:4;stroke-opacity:1;stroke-dasharray:none;marker-end:url(#Arrow2Lend)"
       d="m -60.000003,472.36217 80.000003,0"
       id="path888-3"
       inkscape:connector-curvature="0" />
    <path
       sodipodi:type="arc"
       style="fill:#000000;stroke:#000000;stroke-width:1.77165353;stroke-linecap:round;stroke-linejoin:round;stroke-miterlimit:4;stroke-opacity:1;stroke-dasharray:none;stroke-dashoffset:2.16000007"
       id="path1438-8"
       sodipodi:cx="40"
       sodipodi:cy="164.09448"
       sodipodi:rx="5"
       sodipodi:ry="5"
       d="m 45,164.09448 c 0,2.76143 -2.238576,5 -5,5 -2.761424,0 -5,-2.23857 -5,-5 0,-2.76142 2.238576,-5 5,-5 2.761424,0 5,2.23858 5,5 z"
       transform="translate(-120,308.26769)" />
    <text
       xml:space="preserve"
       style="font-size:20px;font-style:normal;font-variant:normal;font-weight:normal;font-stretch:normal;text-align:center;line-height:125%;letter-spacing:0px;word-spacing:0px;text-anchor:middle;fill:#000000;fill-opacity:1;stroke:none;font-family:LMRoman9;-inkscape-font-specification:LMRoman9"
       x="-20.000004"
       y="452.36218"
       id="text1462-2"
       sodipodi:linespacing="125%"><tspan
         sodipodi:role="line"
         id="tspan1464-85"
         x="-20.000004"
         y="452.36218">0</tspan></text>
    <path
       style="fill:none;stroke:#000000;stroke-width:1.77165353;stroke-linecap:butt;stroke-linejoin:miter;stroke-miterlimit:4;stroke-opacity:1;stroke-dasharray:none;marker-end:url(#Arrow2Lend)"
       d="m 440,372.36218 80,99.99999"
       id="path970-2"
       inkscape:connector-curvature="0" />
    <path
       style="fill:none;stroke:#000000;stroke-width:1.77165353;stroke-linecap:butt;stroke-linejoin:miter;stroke-miterlimit:4;stroke-opacity:1;stroke-dasharray:none;marker-end:url(#Arrow2Lend)"
       d="m 440,592.36217 80,-120"
       id="path972-5"
       inkscape:connector-curvature="0" />
  </g>
</svg>
